<svg width="158" height="162" viewBox="0 0 158 162" fill="none" xmlns="http://www.w3.org/2000/svg">
<path d="M68 3H16C12.5522 3 9.24558 4.36964 6.80761 6.80761C4.36964 9.24558 3 12.5522 3 16V120C3 123.448 4.36964 126.754 6.80761 129.192C9.24558 131.63 12.5522 133 16 133H94C97.4478 133 100.754 131.63 103.192 129.192C105.63 126.754 107 123.448 107 120V42M68 3L107 42M68 3V42H107M81 74.5H29M81 100.5H29M42 48.5H29" stroke="#5A5A5A" stroke-width="6" stroke-linecap="round" stroke-linejoin="round"/>
<path d="M150.115 130.878C150.258 129.8 150.33 128.686 150.33 127.5C150.33 126.35 150.258 125.2 150.079 124.122L157.361 118.444C158.007 117.941 158.187 116.97 157.792 116.252L150.904 104.32C150.473 103.53 149.577 103.278 148.787 103.53L140.213 106.98C138.419 105.614 136.518 104.464 134.401 103.602L133.11 94.4734C132.966 93.6109 132.249 93 131.388 93H117.612C116.751 93 116.069 93.6109 115.926 94.4734L114.634 103.602C112.518 104.464 110.581 105.65 108.823 106.98L100.249 103.53C99.4593 103.242 98.5624 103.53 98.1319 104.32L91.2798 116.252C90.8493 117.006 90.9928 117.941 91.7103 118.444L98.9929 124.122C98.8136 125.2 98.6701 126.386 98.6701 127.5C98.6701 128.614 98.7418 129.8 98.9212 130.878L91.6386 136.556C90.9928 137.059 90.8135 138.03 91.2081 138.748L98.0961 150.68C98.5266 151.47 99.4234 151.722 100.213 151.47L108.787 148.02C110.581 149.386 112.482 150.536 114.599 151.398L115.89 160.527C116.069 161.389 116.751 162 117.612 162H131.388C132.249 162 132.966 161.389 133.074 160.527L134.366 151.398C136.482 150.536 138.419 149.386 140.177 148.02L148.751 151.47C149.541 151.758 150.438 151.47 150.868 150.68L157.756 138.748C158.187 137.958 158.007 137.059 157.326 136.556L150.115 130.878ZM124.5 140.437C117.397 140.437 111.585 134.616 111.585 127.5C111.585 120.384 117.397 114.562 124.5 114.562C131.603 114.562 137.415 120.384 137.415 127.5C137.415 134.616 131.603 140.437 124.5 140.437Z" fill="#EE3D51"/>
</svg>
